<?xml version="1.0" standalone="no"?>
<!DOCTYPE svg PUBLIC "-//W3C//DTD SVG 20010904//EN"
 "http://www.w3.org/TR/2001/REC-SVG-20010904/DTD/svg10.dtd">
<svg version="1.0" xmlns="http://www.w3.org/2000/svg"
 width="156.000000pt" height="156.000000pt" viewBox="0 0 156.000000 156.000000"
 preserveAspectRatio="xMidYMid meet">
<metadata>
Created by potrace 1.14, written by Peter Selinger 2001-2017
</metadata>
<g transform="translate(0.000000,156.000000) scale(0.100000,-0.100000)"
fill="#000000" stroke="none">
<path d="M676 1271 c-12 -19 -71 -42 -125 -48 -25 -2 -55 -6 -66 -8 -11 -2
-25 -4 -32 -4 -6 -1 -9 -10 -6 -21 5 -19 0 -20 -64 -20 -89 0 -102 -12 -63
-59 82 -101 73 -94 128 -92 l51 1 -3 -57 c-5 -101 -16 -143 -37 -143 -11 0
-20 -6 -20 -12 -1 -7 -3 -23 -4 -35 -1 -13 -8 -29 -15 -37 -12 -16 -20 -10
-70 59 -14 19 -14 19 3 6 15 -12 20 -12 30 -1 9 10 9 11 0 6 -7 -4 -13 -2 -13
3 0 10 14 15 33 12 19 -3 4 18 -20 27 -58 22 -76 25 -67 11 6 -12 5 -12 -9 0
-9 7 -17 12 -18 10 -2 -16 -10 -77 -12 -91 -2 -21 -2 -21 -25 -9 -9 6 -42 21
-72 34 -31 13 -73 39 -93 57 -20 17 -37 28 -37 22 0 -12 46 -61 80 -85 20 -14
20 -15 3 -7 -35 16 -38 12 -12 -17 13 -14 17 -23 9 -19 -8 4 -3 -3 11 -16 14
-13 24 -29 22 -35 -2 -6 17 -17 43 -24 25 -8 57 -25 70 -38 22 -22 23 -26 11
-45 -15 -22 -57 -35 -57 -17 0 6 -6 11 -14 11 -8 0 -26 16 -42 35 -29 37 -63
45 -83 21 -16 -19 -1 -54 43 -95 24 -24 36 -44 36 -62 0 -57 -47 -46 -56 12
-4 22 -9 37 -12 34 -3 -3 -15 12 -28 32 l-22 38 2 -69 c2 -58 6 -72 25 -87 44
-36 111 -16 111 32 0 29 -17 58 -57 101 -34 35 -37 58 -8 58 20 0 68 -67 59
-81 -4 -7 -3 -9 4 -5 6 3 13 2 17 -4 3 -5 15 -10 25 -10 21 0 50 -25 50 -45 0
-7 -8 -12 -17 -11 -28 2 -39 -45 -19 -84 9 -18 16 -39 16 -47 0 -7 5 -13 10
-13 6 0 10 10 10 22 0 21 0 21 16 2 15 -19 15 -18 9 3 -5 18 -2 20 15 16 33
-9 23 7 -15 23 -19 8 -35 18 -35 22 0 14 15 27 35 30 26 5 45 21 45 38 0 8 4
14 9 14 5 0 7 -9 4 -19 -6 -23 13 -61 30 -61 7 0 29 -5 50 -11 36 -10 38 -12
32 -40 -8 -37 -2 -36 46 2 21 17 39 26 39 20 0 -6 -6 -11 -12 -11 -8 -1 -6 -6
5 -14 22 -17 22 -21 -5 -46 l-23 -21 93 2 c81 3 92 5 92 21 0 14 8 18 35 19
19 1 50 2 68 3 17 1 37 -1 42 -5 6 -3 41 -9 78 -12 l68 -5 -16 25 c-23 35 -13
38 18 7 30 -30 35 -19 16 34 -14 42 -9 52 20 41 23 -9 24 -10 5 -24 -17 -13
-16 -14 16 -8 19 3 45 10 58 14 26 10 44 48 30 66 -6 7 -5 14 2 18 5 3 10 0
10 -8 0 -18 29 -44 55 -49 12 -2 21 -13 23 -27 2 -13 0 -21 -5 -18 -5 3 -20
-4 -33 -15 -16 -13 -19 -18 -7 -14 13 4 17 0 17 -17 1 -21 1 -22 15 -3 15 19
15 19 15 -5 0 -18 2 -21 9 -9 6 8 7 18 5 22 -3 4 -1 8 3 8 5 0 13 12 19 28 14
36 -1 82 -26 82 -29 0 -13 39 19 46 35 7 56 19 56 32 0 18 64 84 75 77 17 -11
11 -30 -20 -60 -65 -62 -72 -137 -14 -151 31 -8 97 22 90 41 -2 7 0 18 4 26 5
7 5 18 -1 25 -6 7 -6 21 1 39 15 41 4 42 -19 4 -12 -19 -21 -29 -21 -24 -1 23
-20 -22 -20 -47 0 -32 -30 -54 -48 -36 -22 22 -12 48 33 97 47 50 57 84 28 99
-17 10 -63 -4 -63 -18 0 -13 -42 -50 -51 -45 -5 4 -9 -1 -9 -9 0 -21 -33 -20
-52 2 -18 20 -32 55 -19 48 4 -3 16 3 25 13 9 10 37 24 62 31 34 10 44 17 39
29 -3 8 -3 12 1 9 3 -4 15 2 27 12 11 11 17 23 14 27 -4 3 1 15 10 26 17 20
17 20 -2 14 -16 -6 -15 -3 5 13 14 11 28 20 31 20 3 0 13 17 23 38 l18 37 -39
-37 c-21 -20 -72 -53 -114 -72 l-77 -35 -6 32 c-4 18 -7 42 -6 54 0 21 -4 22
-38 18 -20 -3 -47 -11 -59 -17 -25 -12 -32 -34 -8 -25 8 4 17 2 20 -3 4 -6 -2
-10 -12 -10 -14 0 -15 -2 -4 -9 8 -5 21 -6 30 -3 8 3 0 -13 -19 -35 -31 -37
-36 -39 -47 -24 -7 9 -13 26 -13 38 0 12 -7 29 -16 37 -20 21 -41 21 -24 1 10
-12 10 -15 -2 -15 -19 0 -46 137 -39 198 2 24 149 0 166 -27 11 -19 23 -12 30
17 28 108 26 124 -12 142 -18 8 -33 23 -33 33 0 9 -5 17 -11 17 -6 0 -17 7
-25 15 -9 8 -34 16 -57 16 -90 3 -176 2 -259 -4 l-87 -5 -14 46 c-9 33 -15 43
-21 33z m-349 -547 c-3 -3 -12 -4 -19 -1 -8 3 -5 6 6 6 11 1 17 -2 13 -5z
m-36 -31 c13 -16 12 -17 -3 -4 -10 7 -18 15 -18 17 0 8 8 3 21 -13z m808 -18
c6 3 8 0 5 -8 -3 -8 -16 -17 -30 -20 -22 -4 -24 -1 -24 31 l0 35 19 -22 c11
-13 25 -20 30 -16z m-649 10 c0 -17 -27 -32 -37 -21 -4 3 2 13 13 21 24 18 24
18 24 0z m-125 -55 c3 -5 1 -10 -4 -10 -6 0 -11 5 -11 10 0 6 2 10 4 10 3 0 8
-4 11 -10z m120 -24 c0 0 8 -18 18 -39 23 -51 22 -60 -12 -85 -37 -27 -58 -11
-41 32 14 38 13 43 -11 67 -17 17 -19 23 -8 30 11 6 53 3 54 -5z m685 -12 c0
-8 -7 -17 -15 -20 -17 -7 -21 -64 -6 -80 6 -5 5 -15 -3 -26 -11 -15 -16 -13
-59 18 l-47 34 25 36 c14 20 25 40 25 43 0 3 18 7 40 8 30 2 40 -1 40 -13z
m50 -48 c0 -3 -4 -8 -10 -11 -5 -3 -10 -1 -10 4 0 6 5 11 10 11 6 0 10 -2 10
-4z m-690 -113 c0 -8 -5 -13 -12 -11 -18 6 -21 25 -3 25 8 0 15 -7 15 -14z
m200 8 c0 -4 -19 -11 -43 -14 -24 -3 -52 -9 -62 -12 -11 -3 -2 3 20 14 42 21
85 27 85 12z"/>
</g>
</svg>
